solid STL generated by MeshLab
  facet normal -8.757412e-01 -4.805362e-01  4.650036e-02
    outer loop
      vertex  -3.260925e-01  3.453061e-01 -4.247266e-01
      vertex  -1.812499e-01  7.393398e-02 -5.012750e-01
      vertex  -3.112768e-01  3.471472e-01 -1.266771e-01
    endloop
  endfacet
  facet normal -7.996616e-01 -2.764584e-01 -5.330217e-01
    outer loop
      vertex   0.000000e+00  0.000000e+00 -7.348469e-01
      vertex  -1.812499e-01  7.393398e-02 -5.012750e-01
      vertex  -3.260925e-01  3.453061e-01 -4.247266e-01
    endloop
  endfacet
  facet normal -6.474912e-01  4.205077e-01 -6.355536e-01
    outer loop
      vertex  -3.305814e-01 -2.590087e-01 -5.694268e-01
      vertex  -1.812499e-01  7.393398e-02 -5.012750e-01
      vertex   0.000000e+00  0.000000e+00 -7.348469e-01
    endloop
  endfacet
  facet normal  3.596475e-02 -5.701087e-01 -8.207816e-01
    outer loop
      vertex  -1.359976e-01 -4.550574e-01 -4.247266e-01
      vertex  -3.305814e-01 -2.590087e-01 -5.694268e-01
      vertex   0.000000e+00  0.000000e+00 -7.348469e-01
    endloop
  endfacet
  facet normal -2.457892e-01 -7.216260e-01 -6.471813e-01
    outer loop
      vertex  -1.975815e-01 -6.557963e-01 -1.775084e-01
      vertex  -3.305814e-01 -2.590087e-01 -5.694268e-01
      vertex  -1.359976e-01 -4.550574e-01 -4.247266e-01
    endloop
  endfacet
  facet normal  8.540272e-01 -5.181460e-01  4.650035e-02
    outer loop
      vertex  -1.359976e-01 -4.550574e-01 -4.247266e-01
      vertex   2.659623e-02 -1.939340e-01 -5.012750e-01
      vertex  -1.449999e-01 -4.431472e-01 -1.266771e-01
    endloop
  endfacet
  facet normal  6.392509e-01 -5.542980e-01 -5.330216e-01
    outer loop
      vertex   0.000000e+00  0.000000e+00 -7.348469e-01
      vertex   2.659623e-02 -1.939340e-01 -5.012750e-01
      vertex  -1.359976e-01 -4.550574e-01 -4.247266e-01
    endloop
  endfacet
  facet normal -4.042478e-02 -7.709976e-01 -6.355537e-01
    outer loop
      vertex   3.895989e-01 -1.567876e-01 -5.694268e-01
      vertex   2.659623e-02 -1.939340e-01 -5.012750e-01
      vertex   0.000000e+00  0.000000e+00 -7.348469e-01
    endloop
  endfacet
  facet normal  4.757463e-01  3.162008e-01 -8.207816e-01
    outer loop
      vertex   4.620901e-01  1.097513e-01 -4.247266e-01
      vertex   3.895989e-01 -1.567876e-01 -5.694268e-01
      vertex   0.000000e+00  0.000000e+00 -7.348469e-01
    endloop
  endfacet
  facet normal  7.478409e-01  1.479535e-01 -6.471813e-01
    outer loop
      vertex   6.667270e-01  1.567876e-01 -1.775084e-01
      vertex   3.895989e-01 -1.567876e-01 -5.694268e-01
      vertex   4.620901e-01  1.097513e-01 -4.247266e-01
    endloop
  endfacet
  facet normal  2.171400e-02  9.986823e-01  4.650034e-02
    outer loop
      vertex   4.620901e-01  1.097513e-01 -4.247266e-01
      vertex   1.546536e-01  1.200000e-01 -5.012750e-01
      vertex   4.562767e-01  9.600000e-02 -1.266771e-01
    endloop
  endfacet
  facet normal  1.604107e-01  8.307565e-01 -5.330216e-01
    outer loop
      vertex   0.000000e+00  0.000000e+00 -7.348469e-01
      vertex   1.546536e-01  1.200000e-01 -5.012750e-01
      vertex   4.620901e-01  1.097513e-01 -4.247266e-01
    endloop
  endfacet
  facet normal  6.879160e-01  3.504900e-01 -6.355537e-01
    outer loop
      vertex  -5.901743e-02  4.157963e-01 -5.694268e-01
      vertex   1.546536e-01  1.200000e-01 -5.012750e-01
      vertex   0.000000e+00  0.000000e+00 -7.348469e-01
    endloop
  endfacet
  facet normal -5.117110e-01  2.539080e-01 -8.207817e-01
    outer loop
      vertex  -3.260925e-01  3.453061e-01 -4.247266e-01
      vertex  -5.901743e-02  4.157963e-01 -5.694268e-01
      vertex   0.000000e+00  0.000000e+00 -7.348469e-01
    endloop
  endfacet
  facet normal -5.020518e-01  5.736727e-01 -6.471814e-01
    outer loop
      vertex  -4.691455e-01  4.990087e-01 -1.775084e-01
      vertex  -5.901743e-02  4.157963e-01 -5.694268e-01
      vertex  -3.260925e-01  3.453061e-01 -4.247266e-01
    endloop
  endfacet
  facet normal  8.831857e-01  4.676420e-01 -3.597222e-02
    outer loop
      vertex  -1.821857e-01  5.350574e-01 -2.940872e-01
      vertex  -1.581559e-01  5.139340e-01  2.128281e-02
      vertex  -5.262385e-02  2.831472e-01 -3.879561e-01
    endloop
  endfacet
  facet normal  4.414526e-01  8.968951e-01  2.643725e-02
    outer loop
      vertex  -3.464102e-01  6.000000e-01  2.449490e-01
      vertex  -1.581559e-01  5.139340e-01  2.128281e-02
      vertex  -1.821857e-01  5.350574e-01 -2.940872e-01
    endloop
  endfacet
  facet normal -1.107223e-01  8.927566e-01 -4.367223e-01
    outer loop
      vertex   1.014960e-01  6.557963e-01  2.454511e-01
      vertex  -1.581559e-01  5.139340e-01  2.128281e-02
      vertex  -3.464102e-01  6.000000e-01  2.449490e-01
    endloop
  endfacet
  facet normal -8.174430e-02  6.494011e-01  7.560397e-01
    outer loop
      vertex   1.531746e-01  4.253061e-01  4.490184e-01
      vertex   1.014960e-01  6.557963e-01  2.454511e-01
      vertex  -3.464102e-01  6.000000e-01  2.449490e-01
    endloop
  endfacet
  facet normal  2.754060e-01  6.703278e-01  6.890662e-01
    outer loop
      vertex   4.266669e-01  2.590087e-01  5.014841e-01
      vertex   1.014960e-01  6.557963e-01  2.454511e-01
      vertex   1.531746e-01  4.253061e-01  4.490184e-01
    endloop
  endfacet
  facet normal -2.482792e-01 -5.310401e-01  8.101566e-01
    outer loop
      vertex   1.531746e-01  4.253061e-01  4.490184e-01
      vertex  -1.420663e-01  3.939340e-01  3.379757e-01
      vertex   2.928016e-01  1.871472e-01  3.357003e-01
    endloop
  endfacet
  facet normal -3.574119e-01  6.613876e-02  9.316021e-01
    outer loop
      vertex  -3.464102e-01  6.000000e-01  2.449490e-01
      vertex  -1.420663e-01  3.939340e-01  3.379757e-01
      vertex   1.531746e-01  4.253061e-01  4.490184e-01
    endloop
  endfacet
  facet normal  1.724827e-01  5.422666e-01  8.223118e-01
    outer loop
      vertex  -4.376416e-01  2.400000e-01  5.014841e-01
      vertex  -1.420663e-01  3.939340e-01  3.379757e-01
      vertex  -3.464102e-01  6.000000e-01  2.449490e-01
    endloop
  endfacet
  facet normal -8.866429e-01  3.954932e-01  2.396860e-01
    outer loop
      vertex  -5.716431e-01  8.000000e-02  2.697954e-01
      vertex  -4.376416e-01  2.400000e-01  5.014841e-01
      vertex  -3.464102e-01  6.000000e-01  2.449490e-01
    endloop
  endfacet
  facet normal -8.890658e-01  9.665527e-02  4.474593e-01
    outer loop
      vertex  -6.186843e-01 -2.400000e-01  2.454511e-01
      vertex  -4.376416e-01  2.400000e-01  5.014841e-01
      vertex  -5.716431e-01  8.000000e-02  2.697954e-01
    endloop
  endfacet
  facet normal -5.691450e-01 -5.050400e-02 -8.206846e-01
    outer loop
      vertex  -5.716431e-01  8.000000e-02  2.697954e-01
      vertex  -4.086878e-01  3.200000e-01  1.420165e-01
      vertex  -4.193262e-01 -1.600000e-01  1.789329e-01
    endloop
  endfacet
  facet normal -8.378468e-01  3.425971e-01 -4.250175e-01
    outer loop
      vertex  -3.464102e-01  6.000000e-01  2.449490e-01
      vertex  -4.086878e-01  3.200000e-01  1.420165e-01
      vertex  -5.716431e-01  8.000000e-02  2.697954e-01
    endloop
  endfacet
  facet normal -9.605689e-01  1.217590e-01  2.499641e-01
    outer loop
      vertex  -4.691455e-01  4.990087e-01 -1.775084e-01
      vertex  -4.086878e-01  3.200000e-01  1.420165e-01
      vertex  -3.464102e-01  6.000000e-01  2.449490e-01
    endloop
  endfacet
  facet normal -1.923733e-01  9.656019e-01 -1.749439e-01
    outer loop
      vertex  -1.821857e-01  5.350574e-01 -2.940872e-01
      vertex  -4.691455e-01  4.990087e-01 -1.775084e-01
      vertex  -3.464102e-01  6.000000e-01  2.449490e-01
    endloop
  endfacet
  facet normal -3.015930e-01  8.182811e-01 -4.893442e-01
    outer loop
      vertex  -5.901743e-02  4.157963e-01 -5.694268e-01
      vertex  -4.691455e-01  4.990087e-01 -1.775084e-01
      vertex  -1.821857e-01  5.350574e-01 -2.940872e-01
    endloop
  endfacet
  facet normal -3.660295e-02 -9.986823e-01 -3.597227e-02
    outer loop
      vertex   5.544661e-01 -1.097513e-01 -2.940872e-01
      vertex   5.241578e-01 -1.200000e-01  2.128281e-02
      vertex   2.715246e-01 -9.600000e-02 -3.879561e-01
    endloop
  endfacet
  facet normal  5.560079e-01 -8.307565e-01  2.643715e-02
    outer loop
      vertex   6.928203e-01  0.000000e+00  2.449490e-01
      vertex   5.241578e-01 -1.200000e-01  2.128281e-02
      vertex   5.544661e-01 -1.097513e-01 -2.940872e-01
    endloop
  endfacet
  facet normal  8.285111e-01 -3.504899e-01 -4.367221e-01
    outer loop
      vertex   5.171883e-01 -4.157963e-01  2.454511e-01
      vertex   5.241578e-01 -1.200000e-01  2.128281e-02
      vertex   6.928203e-01  0.000000e+00  2.449490e-01
    endloop
  endfacet
  facet normal  6.032701e-01 -2.539078e-01  7.560397e-01
    outer loop
      vertex   2.917386e-01 -3.453061e-01  4.490184e-01
      vertex   5.171883e-01 -4.157963e-01  2.454511e-01
      vertex   6.928203e-01  0.000000e+00  2.449490e-01
    endloop
  endfacet
  facet normal  4.428178e-01 -5.736725e-01  6.890662e-01
    outer loop
      vertex   1.097470e-02 -4.990087e-01  5.014841e-01
      vertex   5.171883e-01 -4.157963e-01  2.454511e-01
      vertex   2.917386e-01 -3.453061e-01  4.490184e-01
    endloop
  endfacet
  facet normal -3.357546e-01  4.805362e-01  8.101566e-01
    outer loop
      vertex   2.917386e-01 -3.453061e-01  4.490184e-01
      vertex   4.121900e-01 -7.393398e-02  3.379757e-01
      vertex   1.567344e-02 -3.471472e-01  3.357003e-01
    endloop
  endfacet
  facet normal  2.359838e-01  2.764583e-01  9.316020e-01
    outer loop
      vertex   6.928203e-01  0.000000e+00  2.449490e-01
      vertex   4.121900e-01 -7.393398e-02  3.379757e-01
      vertex   2.917386e-01 -3.453061e-01  4.490184e-01
    endloop
  endfacet
  facet normal  3.833754e-01 -4.205077e-01  8.223118e-01
    outer loop
      vertex   4.266669e-01  2.590087e-01  5.014841e-01
      vertex   4.121900e-01 -7.393398e-02  3.379757e-01
      vertex   6.928203e-01  0.000000e+00  2.449490e-01
    endloop
  endfacet
  facet normal  7.858287e-01  5.701087e-01  2.396859e-01
    outer loop
      vertex   3.551036e-01  4.550574e-01  2.697954e-01
      vertex   4.266669e-01  2.590087e-01  5.014841e-01
      vertex   6.928203e-01  0.000000e+00  2.449490e-01
    endloop
  endfacet
  facet normal  5.282388e-01  7.216260e-01  4.474593e-01
    outer loop
      vertex   1.014960e-01  6.557963e-01  2.454511e-01
      vertex   4.266669e-01  2.590087e-01  5.014841e-01
      vertex   3.551036e-01  4.550574e-01  2.697954e-01
    endloop
  endfacet
  facet normal  2.408348e-01  5.181460e-01 -8.206846e-01
    outer loop
      vertex   3.551036e-01  4.550574e-01  2.697954e-01
      vertex   4.814720e-01  1.939340e-01  1.420165e-01
      vertex   7.109906e-02  4.431472e-01  1.789329e-01
    endloop
  endfacet
  facet normal  7.156212e-01  5.542980e-01 -4.250175e-01
    outer loop
      vertex   6.928203e-01  0.000000e+00  2.449490e-01
      vertex   4.814720e-01  1.939340e-01  1.420165e-01
      vertex   3.551036e-01  4.550574e-01  2.697954e-01
    endloop
  endfacet
  facet normal  5.857309e-01  7.709976e-01  2.499641e-01
    outer loop
      vertex   6.667270e-01  1.567876e-01 -1.775084e-01
      vertex   4.814720e-01  1.939340e-01  1.420165e-01
      vertex   6.928203e-01  0.000000e+00  2.449490e-01
    endloop
  endfacet
  facet normal  9.324225e-01 -3.162009e-01 -1.749439e-01
    outer loop
      vertex   5.544661e-01 -1.097513e-01 -2.940872e-01
      vertex   6.667270e-01  1.567876e-01 -1.775084e-01
      vertex   6.928203e-01  0.000000e+00  2.449490e-01
    endloop
  endfacet
  facet normal  8.594488e-01 -1.479535e-01 -4.893439e-01
    outer loop
      vertex   3.895989e-01 -1.567876e-01 -5.694268e-01
      vertex   6.667270e-01  1.567876e-01 -1.775084e-01
      vertex   5.544661e-01 -1.097513e-01 -2.940872e-01
    endloop
  endfacet
  facet normal -8.465827e-01  5.310402e-01 -3.597229e-02
    outer loop
      vertex  -3.722805e-01 -4.253061e-01 -2.940872e-01
      vertex  -3.660020e-01 -3.939340e-01  2.128281e-02
      vertex  -2.189007e-01 -1.871472e-01 -3.879561e-01
    endloop
  endfacet
  facet normal -9.974602e-01 -6.613877e-02  2.643714e-02
    outer loop
      vertex  -3.464102e-01 -6.000000e-01  2.449490e-01
      vertex  -3.660020e-01 -3.939340e-01  2.128281e-02
      vertex  -3.722805e-01 -4.253061e-01 -2.940872e-01
    endloop
  endfacet
  facet normal -7.177888e-01 -5.422667e-01 -4.367222e-01
    outer loop
      vertex  -6.186843e-01 -2.400000e-01  2.454511e-01
      vertex  -3.660020e-01 -3.939340e-01  2.128281e-02
      vertex  -3.464102e-01 -6.000000e-01  2.449490e-01
    endloop
  endfacet
  facet normal -5.215257e-01 -3.954932e-01  7.560397e-01
    outer loop
      vertex  -4.449132e-01 -8.000000e-02  4.490184e-01
      vertex  -6.186843e-01 -2.400000e-01  2.454511e-01
      vertex  -3.464102e-01 -6.000000e-01  2.449490e-01
    endloop
  endfacet
  facet normal -7.182239e-01 -9.665525e-02  6.890662e-01
    outer loop
      vertex  -4.376416e-01  2.400000e-01  5.014841e-01
      vertex  -6.186843e-01 -2.400000e-01  2.454511e-01
      vertex  -4.449132e-01 -8.000000e-02  4.490184e-01
    endloop
  endfacet
  facet normal  5.840338e-01  5.050395e-02  8.101566e-01
    outer loop
      vertex  -4.449132e-01 -8.000000e-02  4.490184e-01
      vertex  -2.701237e-01 -3.200000e-01  3.379757e-01
      vertex  -3.084750e-01  1.600000e-01  3.357003e-01
    endloop
  endfacet
  facet normal  1.214281e-01 -3.425971e-01  9.316021e-01
    outer loop
      vertex  -3.464102e-01 -6.000000e-01  2.449490e-01
      vertex  -2.701237e-01 -3.200000e-01  3.379757e-01
      vertex  -4.449132e-01 -8.000000e-02  4.490184e-01
    endloop
  endfacet
  facet normal -5.558581e-01 -1.217589e-01  8.223118e-01
    outer loop
      vertex   1.097470e-02 -4.990087e-01  5.014841e-01
      vertex  -2.701237e-01 -3.200000e-01  3.379757e-01
      vertex  -3.464102e-01 -6.000000e-01  2.449490e-01
    endloop
  endfacet
  facet normal  1.008143e-01 -9.656019e-01  2.396860e-01
    outer loop
      vertex   2.165395e-01 -5.350574e-01  2.697954e-01
      vertex   1.097470e-02 -4.990087e-01  5.014841e-01
      vertex  -3.464102e-01 -6.000000e-01  2.449490e-01
    endloop
  endfacet
  facet normal  3.608271e-01 -8.182811e-01  4.474593e-01
    outer loop
      vertex   5.171883e-01 -4.157963e-01  2.454511e-01
      vertex   1.097470e-02 -4.990087e-01  5.014841e-01
      vertex   2.165395e-01 -5.350574e-01  2.697954e-01
    endloop
  endfacet
  facet normal  3.283102e-01 -4.676420e-01 -8.206847e-01
    outer loop
      vertex   2.165395e-01 -5.350574e-01  2.697954e-01
      vertex  -7.278425e-02 -5.139340e-01  1.420165e-01
      vertex   3.482272e-01 -2.831472e-01  1.789329e-01
    endloop
  endfacet
  facet normal  1.222256e-01 -8.968950e-01 -4.250179e-01
    outer loop
      vertex  -3.464102e-01 -6.000000e-01  2.449490e-01
      vertex  -7.278425e-02 -5.139340e-01  1.420165e-01
      vertex   2.165395e-01 -5.350574e-01  2.697954e-01
    endloop
  endfacet
  facet normal  3.748383e-01 -8.927566e-01  2.499641e-01
    outer loop
      vertex  -1.975815e-01 -6.557963e-01 -1.775084e-01
      vertex  -7.278425e-02 -5.139340e-01  1.420165e-01
      vertex  -3.464102e-01 -6.000000e-01  2.449490e-01
    endloop
  endfacet
  facet normal -7.400491e-01 -6.494011e-01 -1.749440e-01
    outer loop
      vertex  -3.722805e-01 -4.253061e-01 -2.940872e-01
      vertex  -1.975815e-01 -6.557963e-01 -1.775084e-01
      vertex  -3.464102e-01 -6.000000e-01  2.449490e-01
    endloop
  endfacet
  facet normal -5.578558e-01 -6.703278e-01 -4.893441e-01
    outer loop
      vertex  -3.305814e-01 -2.590087e-01 -5.694268e-01
      vertex  -1.975815e-01 -6.557963e-01 -1.775084e-01
      vertex  -3.722805e-01 -4.253061e-01 -2.940872e-01
    endloop
  endfacet
  facet normal  8.967455e-01  3.717325e-01  2.401301e-01
    outer loop
      vertex  -5.262385e-02  2.831472e-01 -3.879561e-01
      vertex  -5.901743e-02  4.157963e-01 -5.694268e-01
      vertex  -1.821857e-01  5.350574e-01 -2.940872e-01
    endloop
  endfacet
  facet normal  9.822358e-01  1.662915e-01  8.694749e-02
    outer loop
      vertex   0.000000e+00  0.000000e+00 -4.409082e-01
      vertex  -5.901743e-02  4.157963e-01 -5.694268e-01
      vertex  -5.262385e-02  2.831472e-01 -3.879561e-01
    endloop
  endfacet
  facet normal  1.277522e-01  3.093930e-01  9.423138e-01
    outer loop
      vertex   1.546536e-01  1.200000e-01 -5.012750e-01
      vertex  -5.901743e-02  4.157963e-01 -5.694268e-01
      vertex   0.000000e+00  0.000000e+00 -4.409082e-01
    endloop
  endfacet
  facet normal -1.046421e-02  4.601023e-01  8.878043e-01
    outer loop
      vertex   2.715246e-01 -9.600000e-02 -3.879561e-01
      vertex   1.546536e-01  1.200000e-01 -5.012750e-01
      vertex   0.000000e+00  0.000000e+00 -4.409082e-01
    endloop
  endfacet
  facet normal -8.405864e-01 -1.883757e-01  5.078673e-01
    outer loop
      vertex   5.241578e-01 -1.200000e-01  2.128281e-02
      vertex   1.546536e-01  1.200000e-01 -5.012750e-01
      vertex   2.715246e-01 -9.600000e-02 -3.879561e-01
    endloop
  endfacet
  facet normal -1.264429e-01 -9.624707e-01  2.401301e-01
    outer loop
      vertex   2.715246e-01 -9.600000e-02 -3.879561e-01
      vertex   3.895989e-01 -1.567876e-01 -5.694268e-01
      vertex   5.544661e-01 -1.097513e-01 -2.940872e-01
    endloop
  endfacet
  facet normal -3.471052e-01 -9.337869e-01  8.694745e-02
    outer loop
      vertex   0.000000e+00  0.000000e+00 -4.409082e-01
      vertex   3.895989e-01 -1.567876e-01 -5.694268e-01
      vertex   2.715246e-01 -9.600000e-02 -3.879561e-01
    endloop
  endfacet
  facet normal  2.040661e-01 -2.653332e-01  9.423138e-01
    outer loop
      vertex   2.659623e-02 -1.939340e-01 -5.012750e-01
      vertex   3.895989e-01 -1.567876e-01 -5.694268e-01
      vertex   0.000000e+00  0.000000e+00 -4.409082e-01
    endloop
  endfacet
  facet normal  4.036924e-01 -2.209888e-01  8.878043e-01
    outer loop
      vertex  -2.189007e-01 -1.871472e-01 -3.879561e-01
      vertex   2.659623e-02 -1.939340e-01 -5.012750e-01
      vertex   0.000000e+00  0.000000e+00 -4.409082e-01
    endloop
  endfacet
  facet normal  2.571550e-01  8.221570e-01  5.078673e-01
    outer loop
      vertex  -3.660020e-01 -3.939340e-01  2.128281e-02
      vertex   2.659623e-02 -1.939340e-01 -5.012750e-01
      vertex  -2.189007e-01 -1.871472e-01 -3.879561e-01
    endloop
  endfacet
  facet normal -7.703025e-01  5.907381e-01  2.401300e-01
    outer loop
      vertex  -2.189007e-01 -1.871472e-01 -3.879561e-01
      vertex  -3.305814e-01 -2.590087e-01 -5.694268e-01
      vertex  -3.722805e-01 -4.253061e-01 -2.940872e-01
    endloop
  endfacet
  facet normal -6.351306e-01  7.674954e-01  8.694745e-02
    outer loop
      vertex   0.000000e+00  0.000000e+00 -4.409082e-01
      vertex  -3.305814e-01 -2.590087e-01 -5.694268e-01
      vertex  -2.189007e-01 -1.871472e-01 -3.879561e-01
    endloop
  endfacet
  facet normal -3.318183e-01 -4.405987e-02  9.423138e-01
    outer loop
      vertex  -1.812499e-01  7.393398e-02 -5.012750e-01
      vertex  -3.305814e-01 -2.590087e-01 -5.694268e-01
      vertex   0.000000e+00  0.000000e+00 -4.409082e-01
    endloop
  endfacet
  facet normal -3.932281e-01 -2.391134e-01  8.878043e-01
    outer loop
      vertex  -5.262385e-02  2.831472e-01 -3.879561e-01
      vertex  -1.812499e-01  7.393398e-02 -5.012750e-01
      vertex   0.000000e+00  0.000000e+00 -4.409082e-01
    endloop
  endfacet
  facet normal  5.834314e-01 -6.337813e-01  5.078672e-01
    outer loop
      vertex  -1.581559e-01  5.139340e-01  2.128281e-02
      vertex  -1.812499e-01  7.393398e-02 -5.012750e-01
      vertex  -5.262385e-02  2.831472e-01 -3.879561e-01
    endloop
  endfacet
  facet normal -6.992518e-01 -7.138017e-01  3.916817e-02
    outer loop
      vertex  -3.112768e-01  3.471472e-01 -1.266771e-01
      vertex  -4.691455e-01  4.990087e-01 -1.775084e-01
      vertex  -3.260925e-01  3.453061e-01 -4.247266e-01
    endloop
  endfacet
  facet normal -7.098448e-01 -6.380866e-01  2.982714e-01
    outer loop
      vertex  -2.078461e-01  3.600000e-01  1.469694e-01
      vertex  -4.691455e-01  4.990087e-01 -1.775084e-01
      vertex  -3.112768e-01  3.471472e-01 -1.266771e-01
    endloop
  endfacet
  facet normal  1.804148e-01 -8.431538e-01 -5.065000e-01
    outer loop
      vertex  -4.086878e-01  3.200000e-01  1.420165e-01
      vertex  -4.691455e-01  4.990087e-01 -1.775084e-01
      vertex  -2.078461e-01  3.600000e-01  1.469694e-01
    endloop
  endfacet
  facet normal  1.598510e-01 -7.188476e-01 -6.765396e-01
    outer loop
      vertex  -3.084750e-01  1.600000e-01  3.357003e-01
      vertex  -4.086878e-01  3.200000e-01  1.420165e-01
      vertex  -2.078461e-01  3.600000e-01  1.469694e-01
    endloop
  endfacet
  facet normal  9.085605e-01  7.064084e-02 -4.117374e-01
    outer loop
      vertex  -2.701237e-01 -3.200000e-01  3.379757e-01
      vertex  -4.086878e-01  3.200000e-01  1.420165e-01
      vertex  -3.084750e-01  1.600000e-01  3.357003e-01
    endloop
  endfacet
  facet normal  7.531763e-01 -1.230636e-01  6.462049e-01
    outer loop
      vertex  -3.084750e-01  1.600000e-01  3.357003e-01
      vertex  -4.376416e-01  2.400000e-01  5.014841e-01
      vertex  -4.449132e-01 -8.000000e-02  4.490184e-01
    endloop
  endfacet
  facet normal  8.115131e-01  1.294090e-01  5.698244e-01
    outer loop
      vertex  -2.078461e-01  3.600000e-01  1.469694e-01
      vertex  -4.376416e-01  2.400000e-01  5.014841e-01
      vertex  -3.084750e-01  1.600000e-01  3.357003e-01
    endloop
  endfacet
  facet normal  4.613571e-01 -8.872136e-01 -1.263316e-03
    outer loop
      vertex  -1.420663e-01  3.939340e-01  3.379757e-01
      vertex  -4.376416e-01  2.400000e-01  5.014841e-01
      vertex  -2.078461e-01  3.600000e-01  1.469694e-01
    endloop
  endfacet
  facet normal  2.769746e-01 -9.579610e-01  7.480424e-02
    outer loop
      vertex   7.109906e-02  4.431472e-01  1.789329e-01
      vertex  -1.420663e-01  3.939340e-01  3.379757e-01
      vertex  -2.078461e-01  3.600000e-01  1.469694e-01
    endloop
  endfacet
  facet normal -4.066983e-01 -5.631405e-01 -7.193534e-01
    outer loop
      vertex   4.814720e-01  1.939340e-01  1.420165e-01
      vertex  -1.420663e-01  3.939340e-01  3.379757e-01
      vertex   7.109906e-02  4.431472e-01  1.789329e-01
    endloop
  endfacet
  facet normal  2.856706e-01  2.486690e-01 -9.255031e-01
    outer loop
      vertex   7.109906e-02  4.431472e-01  1.789329e-01
      vertex   1.014960e-01  6.557963e-01  2.454511e-01
      vertex   3.551036e-01  4.550574e-01  2.697954e-01
    endloop
  endfacet
  facet normal  2.129424e-02  2.957005e-01 -9.550433e-01
    outer loop
      vertex  -2.078461e-01  3.600000e-01  1.469694e-01
      vertex   1.014960e-01  6.557963e-01  2.454511e-01
      vertex   7.109906e-02  4.431472e-01  1.789329e-01
    endloop
  endfacet
  facet normal  6.908612e-01 -5.778206e-01 -4.345505e-01
    outer loop
      vertex  -1.581559e-01  5.139340e-01  2.128281e-02
      vertex   1.014960e-01  6.557963e-01  2.454511e-01
      vertex  -2.078461e-01  3.600000e-01  1.469694e-01
    endloop
  endfacet
  facet normal  8.187191e-01 -4.978588e-01 -2.860690e-01
    outer loop
      vertex  -3.112768e-01  3.471472e-01 -1.266771e-01
      vertex  -1.581559e-01  5.139340e-01  2.128281e-02
      vertex  -2.078461e-01  3.600000e-01  1.469694e-01
    endloop
  endfacet
  facet normal  2.163705e-01 -7.515162e-01  6.232233e-01
    outer loop
      vertex  -1.812499e-01  7.393398e-02 -5.012750e-01
      vertex  -1.581559e-01  5.139340e-01  2.128281e-02
      vertex  -3.112768e-01  3.471472e-01 -1.266771e-01
    endloop
  endfacet
  facet normal -2.685444e-01  9.624706e-01  3.916813e-02
    outer loop
      vertex   4.562767e-01  9.600000e-02 -1.266771e-01
      vertex   6.667270e-01  1.567876e-01 -1.775084e-01
      vertex   4.620901e-01  1.097513e-01 -4.247266e-01
    endloop
  endfacet
  facet normal -1.976767e-01  9.337869e-01  2.982714e-01
    outer loop
      vertex   4.156922e-01  0.000000e+00  1.469694e-01
      vertex   6.667270e-01  1.567876e-01 -1.775084e-01
      vertex   4.562767e-01  9.600000e-02 -1.266771e-01
    endloop
  endfacet
  facet normal -8.203999e-01  2.653333e-01 -5.064999e-01
    outer loop
      vertex   4.814720e-01  1.939340e-01  1.420165e-01
      vertex   6.667270e-01  1.567876e-01 -1.775084e-01
      vertex   4.156922e-01  0.000000e+00  1.469694e-01
    endloop
  endfacet
  facet normal -7.024658e-01  2.209890e-01 -6.765395e-01
    outer loop
      vertex   2.928016e-01  1.871472e-01  3.357003e-01
      vertex   4.814720e-01  1.939340e-01  1.420165e-01
      vertex   4.156922e-01  0.000000e+00  1.469694e-01
    endloop
  endfacet
  facet normal -3.931035e-01 -8.221570e-01 -4.117373e-01
    outer loop
      vertex  -1.420663e-01  3.939340e-01  3.379757e-01
      vertex   4.814720e-01  1.939340e-01  1.420165e-01
      vertex   2.928016e-01  1.871472e-01  3.357003e-01
    endloop
  endfacet
  facet normal -4.831644e-01 -5.907380e-01  6.462048e-01
    outer loop
      vertex   2.928016e-01  1.871472e-01  3.357003e-01
      vertex   4.266669e-01  2.590087e-01  5.014841e-01
      vertex   1.531746e-01  4.253061e-01  4.490184e-01
    endloop
  endfacet
  facet normal -2.936851e-01 -7.674954e-01  5.698244e-01
    outer loop
      vertex   4.156922e-01  0.000000e+00  1.469694e-01
      vertex   4.266669e-01  2.590087e-01  5.014841e-01
      vertex   2.928016e-01  1.871472e-01  3.357003e-01
    endloop
  endfacet
  facet normal -9.990281e-01  4.405973e-02 -1.263180e-03
    outer loop
      vertex   4.121900e-01 -7.393398e-02  3.379757e-01
      vertex   4.266669e-01  2.590087e-01  5.014841e-01
      vertex   4.156922e-01  0.000000e+00  1.469694e-01
    endloop
  endfacet
  facet normal -9.681059e-01  2.391133e-01  7.480438e-02
    outer loop
      vertex   3.482272e-01 -2.831472e-01  1.789329e-01
      vertex   4.121900e-01 -7.393398e-02  3.379757e-01
      vertex   4.156922e-01  0.000000e+00  1.469694e-01
    endloop
  endfacet
  facet normal -2.843447e-01  6.337813e-01 -7.193534e-01
    outer loop
      vertex  -7.278425e-02 -5.139340e-01  1.420165e-01
      vertex   4.121900e-01 -7.393398e-02  3.379757e-01
      vertex   3.482272e-01 -2.831472e-01  1.789329e-01
    endloop
  endfacet
  facet normal  7.251836e-02 -3.717325e-01 -9.255031e-01
    outer loop
      vertex   3.482272e-01 -2.831472e-01  1.789329e-01
      vertex   5.171883e-01 -4.157963e-01  2.454511e-01
      vertex   2.165395e-01 -5.350574e-01  2.697954e-01
    endloop
  endfacet
  facet normal  2.454370e-01 -1.662915e-01 -9.550433e-01
    outer loop
      vertex   4.156922e-01  0.000000e+00  1.469694e-01
      vertex   5.171883e-01 -4.157963e-01  2.454511e-01
      vertex   3.482272e-01 -2.831472e-01  1.789329e-01
    endloop
  endfacet
  facet normal -8.458379e-01 -3.093931e-01 -4.345506e-01
    outer loop
      vertex   5.241578e-01 -1.200000e-01  2.128281e-02
      vertex   5.171883e-01 -4.157963e-01  2.454511e-01
      vertex   4.156922e-01  0.000000e+00  1.469694e-01
    endloop
  endfacet
  facet normal -8.405179e-01 -4.601023e-01 -2.860690e-01
    outer loop
      vertex   4.562767e-01  9.600000e-02 -1.266771e-01
      vertex   5.241578e-01 -1.200000e-01  2.128281e-02
      vertex   4.156922e-01  0.000000e+00  1.469694e-01
    endloop
  endfacet
  facet normal -7.590173e-01  1.883754e-01  6.232233e-01
    outer loop
      vertex   1.546536e-01  1.200000e-01 -5.012750e-01
      vertex   5.241578e-01 -1.200000e-01  2.128281e-02
      vertex   4.562767e-01  9.600000e-02 -1.266771e-01
    endloop
  endfacet
  facet normal  9.677963e-01 -2.486690e-01  3.916816e-02
    outer loop
      vertex  -1.449999e-01 -4.431472e-01 -1.266771e-01
      vertex  -1.975815e-01 -6.557963e-01 -1.775084e-01
      vertex  -1.359976e-01 -4.550574e-01 -4.247266e-01
    endloop
  endfacet
  facet normal  9.075215e-01 -2.957005e-01  2.982714e-01
    outer loop
      vertex  -2.078461e-01 -3.600000e-01  1.469694e-01
      vertex  -1.975815e-01 -6.557963e-01 -1.775084e-01
      vertex  -1.449999e-01 -4.431472e-01 -1.266771e-01
    endloop
  endfacet
  facet normal  6.399853e-01  5.778206e-01 -5.065000e-01
    outer loop
      vertex  -7.278425e-02 -5.139340e-01  1.420165e-01
      vertex  -1.975815e-01 -6.557963e-01 -1.775084e-01
      vertex  -2.078461e-01 -3.600000e-01  1.469694e-01
    endloop
  endfacet
  facet normal  5.426149e-01  4.978588e-01 -6.765395e-01
    outer loop
      vertex   1.567344e-02 -3.471472e-01  3.357003e-01
      vertex  -7.278425e-02 -5.139340e-01  1.420165e-01
      vertex  -2.078461e-01 -3.600000e-01  1.469694e-01
    endloop
  endfacet
  facet normal -5.154570e-01  7.515162e-01 -4.117372e-01
    outer loop
      vertex   4.121900e-01 -7.393398e-02  3.379757e-01
      vertex  -7.278425e-02 -5.139340e-01  1.420165e-01
      vertex   1.567344e-02 -3.471472e-01  3.357003e-01
    endloop
  endfacet
  facet normal -2.700120e-01  7.138016e-01  6.462049e-01
    outer loop
      vertex   1.567344e-02 -3.471472e-01  3.357003e-01
      vertex   1.097470e-02 -4.990087e-01  5.014841e-01
      vertex   2.917386e-01 -3.453061e-01  4.490184e-01
    endloop
  endfacet
  facet normal -5.178280e-01  6.380864e-01  5.698244e-01
    outer loop
      vertex  -2.078461e-01 -3.600000e-01  1.469694e-01
      vertex   1.097470e-02 -4.990087e-01  5.014841e-01
      vertex   1.567344e-02 -3.471472e-01  3.357003e-01
    endloop
  endfacet
  facet normal  5.376710e-01  8.431538e-01 -1.263341e-03
    outer loop
      vertex  -2.701237e-01 -3.200000e-01  3.379757e-01
      vertex   1.097470e-02 -4.990087e-01  5.014841e-01
      vertex  -2.078461e-01 -3.600000e-01  1.469694e-01
    endloop
  endfacet
  facet normal  6.911312e-01  7.188476e-01  7.480418e-02
    outer loop
      vertex  -4.193262e-01 -1.600000e-01  1.789329e-01
      vertex  -2.701237e-01 -3.200000e-01  3.379757e-01
      vertex  -2.078461e-01 -3.600000e-01  1.469694e-01
    endloop
  endfacet
  facet normal  6.910431e-01 -7.064085e-02 -7.193534e-01
    outer loop
      vertex  -4.086878e-01  3.200000e-01  1.420165e-01
      vertex  -2.701237e-01 -3.200000e-01  3.379757e-01
      vertex  -4.193262e-01 -1.600000e-01  1.789329e-01
    endloop
  endfacet
  facet normal -3.581890e-01  1.230636e-01 -9.255031e-01
    outer loop
      vertex  -4.193262e-01 -1.600000e-01  1.789329e-01
      vertex  -6.186843e-01 -2.400000e-01  2.454511e-01
      vertex  -5.716431e-01  8.000000e-02  2.697954e-01
    endloop
  endfacet
  facet normal -2.667312e-01 -1.294089e-01 -9.550434e-01
    outer loop
      vertex  -2.078461e-01 -3.600000e-01  1.469694e-01
      vertex  -6.186843e-01 -2.400000e-01  2.454511e-01
      vertex  -4.193262e-01 -1.600000e-01  1.789329e-01
    endloop
  endfacet
  facet normal  1.549768e-01  8.872136e-01 -4.345506e-01
    outer loop
      vertex  -3.660020e-01 -3.939340e-01  2.128281e-02
      vertex  -6.186843e-01 -2.400000e-01  2.454511e-01
      vertex  -2.078461e-01 -3.600000e-01  1.469694e-01
    endloop
  endfacet
  facet normal  2.179882e-02  9.579610e-01 -2.860689e-01
    outer loop
      vertex  -1.449999e-01 -4.431472e-01 -1.266771e-01
      vertex  -3.660020e-01 -3.939340e-01  2.128281e-02
      vertex  -2.078461e-01 -3.600000e-01  1.469694e-01
    endloop
  endfacet
  facet normal  5.426466e-01  5.631405e-01  6.232234e-01
    outer loop
      vertex   2.659623e-02 -1.939340e-01 -5.012750e-01
      vertex  -3.660020e-01 -3.939340e-01  2.128281e-02
      vertex  -1.449999e-01 -4.431472e-01 -1.266771e-01
    endloop
  endfacet
endsolid vcg
